<?xml version="1.0" encoding="UTF-8"?>
<svg id="Layer_2" data-name="Layer 2" xmlns="http://www.w3.org/2000/svg" viewBox="0 0 1461.7 287.56">
  <defs>
    <style>
      .cls-1 {
        fill: #fff;
      }
    </style>
  </defs>
  <g id="Layer_2-2" data-name="Layer 2">
    <g>
      <g>
        <path class="cls-1" d="M129.33,67.79h27.4v26.4h-27.4v-26.4ZM129.33,105.79h27.4v100h-27.4v-100Z"/>
        <path class="cls-1" d="M179.21,105.79h19.4l8,16v84h-27.4v-100ZM206.61,149.79l-11.2-11.2c0-6.67,1.6-12.6,4.8-17.8,3.2-5.2,7.67-9.33,13.4-12.4,5.73-3.07,12.33-4.6,19.8-4.6,8.13,0,15.37,1.67,21.7,5,6.33,3.33,11.37,8.13,15.1,14.4,3.73,6.27,5.6,13.73,5.6,22.4v60.2h-27.4v-56c0-4.53-.87-8.43-2.6-11.7-1.73-3.27-4.17-5.77-7.3-7.5-3.13-1.73-6.77-2.6-10.9-2.6-6.4,0-11.5,1.9-15.3,5.7s-5.7,9.17-5.7,16.1Z"/>
        <path class="cls-1" d="M320.49,205.79l-40-100h28.4l34,87.4h-14l34-87.4h27.4l-39.8,100h-30Z"/>
        <path class="cls-1" d="M465.27,149.79c0-5.47-1.13-9.93-3.4-13.4-2.27-3.47-5.2-6.03-8.8-7.7-3.6-1.67-7.53-2.5-11.8-2.5s-8.43.9-12.1,2.7c-3.67,1.8-6.6,4.83-8.8,9.1-2.2,4.27-3.3,10.2-3.3,17.8,0,6.8,1.13,12.33,3.4,16.6,2.27,4.27,5.4,7.4,9.4,9.4s8.47,3,13.4,3c4,0,7.37-.53,10.1-1.6,2.73-1.07,5-2.57,6.8-4.5,1.8-1.93,3.03-4.1,3.7-6.5h27.2c-1.07,7.07-3.8,13.27-8.2,18.6-4.4,5.33-9.97,9.5-16.7,12.5-6.73,3-14.37,4.5-22.9,4.5-10.13,0-19.17-2.17-27.1-6.5-7.93-4.33-14.17-10.4-18.7-18.2-4.53-7.8-6.8-16.9-6.8-27.3s2.2-19.5,6.6-27.3,10.47-13.87,18.2-18.2c7.73-4.33,16.6-6.5,26.6-6.5s18.33,2.1,25.8,6.3c7.47,4.2,13.33,10.13,17.6,17.8,4.27,7.67,6.4,16.83,6.4,27.5,0,1.2-.03,2.5-.1,3.9-.07,1.4-.17,2.77-.3,4.1h-88v-18.4h71.6l-9.8,4.8Z"/>
        <path class="cls-1" d="M508.23,105.79h27.4v103.4c0,12.53-3.17,21.43-9.5,26.7-6.33,5.27-15.57,7.9-27.7,7.9h-14.6v-24.4h9.6c5.07,0,8.8-.87,11.2-2.6,2.4-1.73,3.6-4.4,3.6-8v-103ZM508.23,67.79h27.4v26.4h-27.4v-26.4Z"/>
        <path class="cls-1" d="M646.91,155.79c0,10.4-1.93,19.5-5.8,27.3-3.87,7.8-9.17,13.87-15.9,18.2-6.73,4.33-14.57,6.5-23.5,6.5s-16.93-2.17-24.4-6.5c-7.47-4.33-13.5-10.4-18.1-18.2-4.6-7.8-6.9-16.9-6.9-27.3s2.3-19.5,6.9-27.3,10.63-13.87,18.1-18.2c7.47-4.33,15.6-6.5,24.4-6.5s16.77,2.17,23.5,6.5c6.73,4.33,12.03,10.4,15.9,18.2,3.87,7.8,5.8,16.9,5.8,27.3ZM631.51,155.79c0-5.73-1.13-10.67-3.4-14.8-2.27-4.13-5.33-7.33-9.2-9.6-3.87-2.27-8.27-3.4-13.2-3.4s-9.33,1.13-13.2,3.4c-3.87,2.27-6.93,5.47-9.2,9.6-2.27,4.13-3.4,9.07-3.4,14.8s1.13,10.47,3.4,14.6c2.27,4.13,5.33,7.33,9.2,9.6,3.87,2.27,8.27,3.4,13.2,3.4s9.33-1.13,13.2-3.4c3.87-2.27,6.93-5.47,9.2-9.6,2.27-4.13,3.4-9,3.4-14.6ZM656.91,205.79h-19.4l-8-16v-13.2l6-2.8v-39.2l-6-1.4v-11.4l8-16h19.4v100Z"/>
        <path class="cls-1" d="M804.5,155.79c0,10.4-1.93,19.5-5.8,27.3-3.87,7.8-9.17,13.87-15.9,18.2-6.73,4.33-14.57,6.5-23.5,6.5s-16.93-2.17-24.4-6.5c-7.47-4.33-13.5-10.4-18.1-18.2-4.6-7.8-6.9-16.9-6.9-27.3s2.3-19.5,6.9-27.3,10.63-13.87,18.1-18.2c7.47-4.33,15.6-6.5,24.4-6.5s16.27,2.1,22.8,6.3c6.53,4.2,11.47,10.3,14.8,18.3,2.67,3.33,4.6,7.33,5.8,12,1.2,4.67,1.8,9.8,1.8,15.4ZM789.1,155.79c0-5.73-1.13-10.67-3.4-14.8-2.27-4.13-5.33-7.33-9.2-9.6-3.87-2.27-8.27-3.4-13.2-3.4s-9.33,1.13-13.2,3.4c-3.87,2.27-6.93,5.47-9.2,9.6-2.27,4.13-3.4,9.07-3.4,14.8s1.13,10.47,3.4,14.6c2.27,4.13,5.33,7.33,9.2,9.6,3.87,2.27,8.27,3.4,13.2,3.4s9.33-1.13,13.2-3.4c3.87-2.27,6.93-5.47,9.2-9.6,2.27-4.13,3.4-9,3.4-14.6ZM814.5,205.79h-19.4l-8-16v-13.2l6-2.8v-39.2l-6-1.4v-65.4h27.4v138Z"/>
        <path class="cls-1" d="M925.78,155.79c0,10.4-1.93,19.5-5.8,27.3-3.87,7.8-9.17,13.87-15.9,18.2-6.73,4.33-14.57,6.5-23.5,6.5s-16.93-2.17-24.4-6.5c-7.47-4.33-13.5-10.4-18.1-18.2-4.6-7.8-6.9-16.9-6.9-27.3s2.3-19.5,6.9-27.3,10.63-13.87,18.1-18.2c7.47-4.33,15.6-6.5,24.4-6.5s16.77,2.17,23.5,6.5c6.73,4.33,12.03,10.4,15.9,18.2,3.87,7.8,5.8,16.9,5.8,27.3ZM910.38,155.79c0-5.73-1.13-10.67-3.4-14.8-2.27-4.13-5.33-7.33-9.2-9.6-3.87-2.27-8.27-3.4-13.2-3.4s-9.33,1.13-13.2,3.4c-3.87,2.27-6.93,5.47-9.2,9.6-2.27,4.13-3.4,9.07-3.4,14.8s1.13,10.47,3.4,14.6c2.27,4.13,5.33,7.33,9.2,9.6,3.87,2.27,8.27,3.4,13.2,3.4s9.33-1.13,13.2-3.4c3.87-2.27,6.93-5.47,9.2-9.6,2.27-4.13,3.4-9,3.4-14.6ZM935.78,205.79h-19.4l-8-16v-13.2l6-2.8v-39.2l-6-1.4v-11.4l8-16h19.4v100Z"/>
        <path class="cls-1" d="M995.58,205.79V67.79h27.4v65.4l-6,1.4v39.2l6,2.8v13.2l-8,16h-19.4ZM1005.38,155.79c0-5.87.67-11.27,2-16.2,1.33-4.93,3.47-9.07,6.4-12.4,3.47-7.6,8.4-13.4,14.8-17.4,6.4-4,13.73-6,22-6,8.93,0,17.13,2.17,24.6,6.5,7.47,4.33,13.5,10.4,18.1,18.2,4.6,7.8,6.9,16.9,6.9,27.3s-2.3,19.5-6.9,27.3c-4.6,7.8-10.63,13.87-18.1,18.2-7.47,4.33-15.67,6.5-24.6,6.5s-16.6-2.17-23.4-6.5c-6.8-4.33-12.13-10.4-16-18.2-3.87-7.8-5.8-16.9-5.8-27.3ZM1020.98,155.79c0,5.6,1.13,10.47,3.4,14.6,2.27,4.13,5.33,7.33,9.2,9.6,3.87,2.27,8.27,3.4,13.2,3.4s9.33-1.13,13.2-3.4c3.87-2.27,6.93-5.47,9.2-9.6,2.27-4.13,3.4-9,3.4-14.6s-1.13-10.67-3.4-14.8c-2.27-4.13-5.33-7.33-9.2-9.6-3.87-2.27-8.27-3.4-13.2-3.4s-9.33,1.13-13.2,3.4c-3.87,2.27-6.93,5.47-9.2,9.6-2.27,4.13-3.4,9.07-3.4,14.8Z"/>
        <path class="cls-1" d="M1217.67,155.79c0,10.4-2.33,19.5-7,27.3-4.67,7.8-11.07,13.87-19.2,18.2-8.13,4.33-17.33,6.5-27.6,6.5s-19.43-2.17-27.5-6.5c-8.07-4.33-14.43-10.4-19.1-18.2-4.67-7.8-7-16.9-7-27.3s2.33-19.5,7-27.3c4.67-7.8,11.03-13.87,19.1-18.2,8.07-4.33,17.23-6.5,27.5-6.5s19.47,2.17,27.6,6.5c8.13,4.33,14.53,10.4,19.2,18.2,4.67,7.8,7,16.9,7,27.3ZM1190.08,155.79c0-5.73-1.13-10.67-3.4-14.8-2.27-4.13-5.37-7.33-9.3-9.6-3.93-2.27-8.43-3.4-13.5-3.4s-9.37,1.13-13.3,3.4c-3.93,2.27-7.04,5.47-9.3,9.6-2.27,4.13-3.4,9.07-3.4,14.8s1.13,10.47,3.4,14.6c2.27,4.13,5.37,7.33,9.3,9.6,3.93,2.27,8.37,3.4,13.3,3.4s9.57-1.13,13.5-3.4c3.93-2.27,7.03-5.47,9.3-9.6,2.27-4.13,3.4-9,3.4-14.6Z"/>
        <path class="cls-1" d="M1322.37,155.79c0,10.4-1.93,19.5-5.8,27.3-3.87,7.8-9.17,13.87-15.9,18.2-6.73,4.33-14.57,6.5-23.5,6.5s-16.93-2.17-24.4-6.5c-7.47-4.33-13.5-10.4-18.1-18.2-4.6-7.8-6.9-16.9-6.9-27.3s2.3-19.5,6.9-27.3,10.63-13.87,18.1-18.2c7.47-4.33,15.6-6.5,24.4-6.5s16.77,2.17,23.5,6.5c6.73,4.33,12.03,10.4,15.9,18.2,3.87,7.8,5.8,16.9,5.8,27.3ZM1306.97,155.79c0-5.73-1.13-10.67-3.4-14.8-2.27-4.13-5.33-7.33-9.2-9.6-3.87-2.27-8.27-3.4-13.2-3.4s-9.33,1.13-13.2,3.4c-3.87,2.27-6.93,5.47-9.2,9.6-2.27,4.13-3.4,9.07-3.4,14.8s1.13,10.47,3.4,14.6c2.27,4.13,5.33,7.33,9.2,9.6,3.87,2.27,8.27,3.4,13.2,3.4s9.33-1.13,13.2-3.4c3.87-2.27,6.93-5.47,9.2-9.6,2.27-4.13,3.4-9,3.4-14.6ZM1332.37,205.79h-19.4l-8-16v-13.2l6-2.8v-39.2l-6-1.4v-11.4l8-16h19.4v100Z"/>
      </g>
      <g>
        <path class="cls-1" d="M381.51,0h11.2v51.2h-11.2V0ZM423.03,17.28c0,5.33-1.75,9.53-5.24,12.6-3.49,3.07-8.33,4.6-14.52,4.6h-18.48v-9.6h18.8c2.56,0,4.55-.67,5.96-2,1.41-1.33,2.12-3.15,2.12-5.44s-.71-4.25-2.12-5.56c-1.41-1.31-3.4-1.96-5.96-1.96h-18.8V0h18.48c6.19,0,11.03,1.52,14.52,4.56,3.49,3.04,5.24,7.28,5.24,12.72ZM411.75,51.2l-12.4-23.44,10.16-2.64,15.12,26.08h-12.88Z"/>
        <path class="cls-1" d="M431.39,0h11.2v51.2h-11.2V0ZM437.63,10.16V0h30.64v10.16h-30.64ZM437.63,30.24v-9.76h28.24v9.76h-28.24ZM437.63,51.2v-10.16h30.64v10.16h-30.64Z"/>
        <path class="cls-1" d="M477.27,0h10.8v51.2h-10.8V0ZM477.59,4.4l10.48-4.4,36.08,46.8-10.4,4.4-36.16-46.8ZM513.75,0h10.8v51.2h-10.8V0Z"/>
        <path class="cls-1" d="M563.13,0l21.76,51.2h-12.16l-18.64-45.36h6l-18.64,45.36h-11.68L551.53,0h11.6ZM543.85,40.32v-10h25.44v10h-25.44Z"/>
        <path class="cls-1" d="M610.01,52c-7.41,0-13.13-1.95-17.16-5.84-4.03-3.89-6.04-9.47-6.04-16.72V0h11.2v28.96c0,4.27,1.03,7.45,3.08,9.56,2.05,2.11,5.03,3.16,8.92,3.16s6.87-1.05,8.92-3.16c2.05-2.11,3.08-5.29,3.08-9.56V0h11.2v29.44c0,7.25-2.01,12.83-6.04,16.72-4.03,3.89-9.75,5.84-17.16,5.84Z"/>
        <path class="cls-1" d="M643.08,0h11.2v51.2h-11.2V0ZM647.73,51.2v-10.32h31.04v10.32h-31.04Z"/>
        <path class="cls-1" d="M672.6,10.32V0h46.48v10.32h-46.48ZM690.28,0h11.2v51.2h-11.2V0Z"/>
        <path class="cls-1" d="M740.04,0h11.2v51.2h-11.2V0ZM744.68,30v-9.84h18.72v9.84h-18.72ZM765.16,23.28l21.76,27.52v.4h-13.84l-20.4-26.48.4-.16,12.08-1.28ZM765.64,24.56h-12.56l-.32-.16,20.64-24.4h12.96v.32l-20.72,24.24Z"/>
        <path class="cls-1" d="M823.37,0l21.76,51.2h-12.16l-18.64-45.36h6l-18.64,45.36h-11.68L811.77,0h11.6ZM804.09,40.32v-10h25.44v10h-25.44Z"/>
        <path class="cls-1" d="M850.39,0h11.2v51.2h-11.2V0ZM891.91,17.28c0,5.33-1.75,9.53-5.24,12.6-3.49,3.07-8.33,4.6-14.52,4.6h-18.48v-9.6h18.8c2.56,0,4.55-.67,5.96-2,1.41-1.33,2.12-3.15,2.12-5.44s-.71-4.25-2.12-5.56c-1.41-1.31-3.4-1.96-5.96-1.96h-18.8V0h18.48c6.19,0,11.03,1.52,14.52,4.56,3.49,3.04,5.24,7.28,5.24,12.72ZM880.63,51.2l-12.4-23.44,10.16-2.64,15.12,26.08h-12.88Z"/>
        <path class="cls-1" d="M900.27,0h11.2v51.2h-11.2V0ZM922.11,0c3.89,0,7.47.64,10.72,1.92,3.25,1.28,6.07,3.08,8.44,5.4,2.37,2.32,4.21,5.04,5.52,8.16,1.31,3.12,1.96,6.49,1.96,10.12s-.65,7.07-1.96,10.16c-1.31,3.09-3.15,5.8-5.52,8.12-2.37,2.32-5.19,4.12-8.44,5.4-3.25,1.28-6.83,1.92-10.72,1.92h-16.4l-.64-10.32h17.04c2.99,0,5.61-.63,7.88-1.88,2.27-1.25,4.05-3.03,5.36-5.32,1.31-2.29,1.96-4.99,1.96-8.08s-.65-5.85-1.96-8.12c-1.31-2.27-3.09-4.03-5.36-5.28-2.27-1.25-4.89-1.88-7.88-1.88h-16.4V0h16.4Z"/>
        <path class="cls-1" d="M956.13,0h11.2v51.2h-11.2V0Z"/>
        <path class="cls-1" d="M1005.9,0l21.76,51.2h-12.16l-18.64-45.36h6l-18.64,45.36h-11.68L994.3,0h11.6ZM986.62,40.32v-10h25.44v10h-25.44Z"/>
        <path class="cls-1" d="M1032.91,0h10.8v51.2h-10.8V0ZM1033.23,4.4l10.48-4.4,36.08,46.8-10.4,4.4-36.16-46.8ZM1069.39,0h10.8v51.2h-10.8V0Z"/>
      </g>
      <path class="cls-1" d="M1385.69,287.56H76.01C34.1,287.56,0,253.46,0,211.55v-116.9C0,52.74,34.1,18.65,76.01,18.65h272.49v12H76.01c-35.29,0-64.01,28.71-64.01,64.01v116.9c0,35.3,28.71,64.01,64.01,64.01h1309.68c35.3,0,64.01-28.71,64.01-64.01v-116.9c0-35.29-28.71-64.01-64.01-64.01h-272.49v-12h272.49c41.91,0,76.01,34.1,76.01,76.01v116.9c0,41.91-34.1,76.01-76.01,76.01Z"/>
    </g>
  </g>
</svg>